<svg width="198" height="50" xmlns="http://www.w3.org/2000/svg" xmlns:xlink="http://www.w3.org/1999/xlink"><defs><path id="a" d="M0 .09h8.964v2.103H0z"/></defs><g fill="none" fill-rule="evenodd"><path d="M98.48 0L73.535 24.991 98.48 49.983l24.945-24.992L98.48.001zM80.46 24.991L98.48 6.94 116.5 24.99 98.48 43.044 80.46 24.99z" fill="#fff"/><path fill="#fff" d="M82.07 43.745l-2.31-2.313 35.13-35.195 2.31 2.313z"/><path fill="#fff" d="M114.89 43.745L79.76 8.55l2.31-2.313 35.13 35.195zM100.766 14.809a2.266 2.266 0 0 0-2.264-2.269 2.266 2.266 0 0 0-2.264 2.269 2.266 2.266 0 0 0 2.264 2.268 2.266 2.266 0 0 0 2.264-2.268M110.897 24.963a2.266 2.266 0 0 0-2.264-2.268 2.266 2.266 0 0 0-2.264 2.268 2.266 2.266 0 0 0 2.264 2.268 2.266 2.266 0 0 0 2.264-2.268M100.733 35.138a2.266 2.266 0 0 0-2.264-2.269 2.266 2.266 0 0 0-2.264 2.269 2.266 2.266 0 0 0 2.264 2.268 2.266 2.266 0 0 0 2.264-2.268M90.602 24.991a2.266 2.266 0 0 0-2.264-2.268 2.266 2.266 0 0 0-2.264 2.268 2.266 2.266 0 0 0 2.264 2.268 2.266 2.266 0 0 0 2.264-2.268M10.203 35.493H1.05C.47 35.493 0 35.022 0 34.44V13.447c0-.581.47-1.052 1.05-1.052h9.153a1.05 1.05 0 0 1 0 2.103H2.1V33.39h8.104a1.05 1.05 0 0 1 0 2.103"/><g transform="translate(0 21.478)"><mask id="b" fill="#fff"><use xlink:href="#a"/></mask><path d="M7.914 2.193H1.05a1.05 1.05 0 0 1 0-2.103h6.865a1.05 1.05 0 0 1 0 2.103" fill="#fff" mask="url(#b)"/></g><path d="M28.413 14.498h-11.7a1.05 1.05 0 0 1 0-2.103h11.7a1.05 1.05 0 0 1 0 2.103" fill="#fff"/><path d="M22.563 35.493c-.58 0-1.05-.471-1.05-1.052V13.447a1.05 1.05 0 1 1 2.1 0V34.44c0 .581-.47 1.052-1.05 1.052M34.924 35.493c-.58 0-1.05-.471-1.05-1.052V13.447a1.05 1.05 0 1 1 2.099 0V34.44c0 .581-.47 1.052-1.05 1.052M46.317 35.493c-.58 0-1.05-.471-1.05-1.052V13.447a1.05 1.05 0 1 1 2.1 0V34.44c0 .581-.47 1.052-1.05 1.052" fill="#fff"/><path d="M46.317 23.67H34.924a1.05 1.05 0 0 1 0-2.102h11.393a1.05 1.05 0 0 1 0 2.102M57.431 14.498a3.56 3.56 0 0 0-3.553 3.56V29.83a3.56 3.56 0 0 0 3.553 3.56h2.225a3.56 3.56 0 0 0 3.554-3.56V18.058a3.56 3.56 0 0 0-3.554-3.56h-2.225zm2.225 20.995h-2.225c-3.117 0-5.652-2.54-5.652-5.663V18.058c0-3.122 2.535-5.663 5.652-5.663h2.225c3.117 0 5.653 2.54 5.653 5.663V29.83c0 3.122-2.536 5.663-5.653 5.663zM174.966 35.493h-9.154c-.58 0-1.05-.471-1.05-1.052V13.447c0-.581.47-1.052 1.05-1.052h9.154a1.05 1.05 0 0 1 0 2.103h-8.104V33.39h8.104a1.05 1.05 0 0 1 0 2.103" fill="#fff"/><path d="M172.677 23.67h-6.865a1.05 1.05 0 0 1 0-2.102h6.865a1.05 1.05 0 0 1 0 2.102M133.574 35.493c-.58 0-1.05-.471-1.05-1.052V13.447a1.05 1.05 0 1 1 2.1 0V34.44c0 .581-.47 1.052-1.05 1.052M144.363 35.493a1.051 1.051 0 0 1-1.042-1.187l2.726-20.995a1.05 1.05 0 0 1 1.041-.916h7.936c.58 0 1.05.47 1.05 1.052V34.44a1.05 1.05 0 1 1-2.1 0V14.498h-5.964l-2.608 20.08a1.05 1.05 0 0 1-1.039.915" fill="#fff"/><path d="M157.508 37.587c-.58 0-1.05-.47-1.05-1.051v-1.043h-13.53v1.043a1.05 1.05 0 1 1-2.1 0v-2.095c0-.58.47-1.051 1.05-1.051h15.63c.58 0 1.05.47 1.05 1.051v2.095c0 .58-.47 1.051-1.05 1.051M196.783 35.493c-.58 0-1.049-.471-1.049-1.052V13.447a1.05 1.05 0 1 1 2.099 0V34.44c0 .581-.47 1.052-1.05 1.052" fill="#fff"/><path d="M188.824 14.498a4.156 4.156 0 0 0-4.148 4.155v1.176a4.156 4.156 0 0 0 4.148 4.155h6.91v-9.486h-6.91zm7.96 11.59h-7.96c-3.445 0-6.247-2.808-6.247-6.259v-1.176c0-3.45 2.802-6.258 6.247-6.258h7.96c.579 0 1.049.471 1.049 1.052v11.589c0 .58-.47 1.051-1.05 1.051z" fill="#fff"/><path d="M183.27 35.493a1.053 1.053 0 0 1-.857-1.657l6.617-9.406a1.049 1.049 0 1 1 1.716 1.211l-6.618 9.406c-.204.29-.529.446-.859.446" fill="#fff"/></g></svg>