<svg width="24" height="24" fill="none" xmlns="http://www.w3.org/2000/svg"><path fill="none" d="M0 0h23.997v24H0z"/><rect x="4" y="5" width="7" height="2" rx="1" fill="#45D6AD"/><rect x="4" y="9" width="5" height="2" rx="1" fill="#45D6AD"/><rect x="4" y="13" width="9" height="2" rx="1" fill="#45D6AD"/><rect x="4" y="17" width="3" height="2" rx="1" fill="#45D6AD"/><path d="M12.282 7.33a1 1 0 0 1 1.415 0l2.944 2.944a1 1 0 0 1-1.414 1.415l-2.945-2.945a1 1 0 0 1 0-1.415z" fill="#45D6AD"/><path d="M15.244 11.702a1 1 0 0 1 0-1.414l7.046-7.046a1 1 0 1 1 1.414 1.415l-7.046 7.045a1 1 0 0 1-1.414 0z" fill="#45D6AD"/><path d="M2 2h13v2a1 1 0 0 0 2 0V2a2 2 0 0 0-2-2H2a2 2 0 0 0-2 2v20a2 2 0 0 0 2 2h13a2 2 0 0 0 2-2v-6a1 1 0 0 0-2 0v6H2V2z" fill="#45D6AD"/></svg>