<svg width="24" height="24" fill="none" xmlns="http://www.w3.org/2000/svg"><path fill="none" d="M0 0h24v24H0z"/><rect x="1" y="3" width="22" height="20" rx="4" stroke="#45D6AD" stroke-width="2"/><rect x="6" width="2" height="6" rx="1" fill="#45D6AD"/><rect x="16" width="2" height="6" rx="1" fill="#45D6AD"/><path fill="#45D6AD" d="M0 8h24v2H0z"/><rect x="5" y="13" width="2" height="2" rx=".5" fill="#45D6AD"/><rect x="9" y="13" width="2" height="2" rx=".5" fill="#45D6AD"/><rect x="13" y="13" width="2" height="2" rx=".5" fill="#45D6AD"/><rect x="17" y="13" width="2" height="2" rx=".5" fill="#45D6AD"/><rect x="5" y="17" width="2" height="2" rx=".5" fill="#45D6AD"/><rect x="9" y="17" width="2" height="2" rx=".5" fill="#45D6AD"/><rect x="13" y="17" width="2" height="2" rx=".5" fill="#45D6AD"/><rect x="17" y="17" width="2" height="2" rx=".5" fill="#45D6AD"/></svg>
