<svg width="24" height="24" fill="none" xmlns="http://www.w3.org/2000/svg"><path fill="none" d="M0 0h24v24H0z"/><rect x="11" width="5" height="2" rx="1" fill="#263745"/><rect x="21.414" y="2" width="3" height="2" rx="1" transform="rotate(45 21.414 2)" fill="#263745"/><path d="M9 22.399c0 .36.206.693.54.829A10.47 10.47 0 0 0 13.5 24C19.299 24 24 19.299 24 13.5S19.299 3 13.5 3c-1.4 0-2.738.274-3.96.772a.886.886 0 0 0-.54.83c0 .733.822 1.197 1.51.94A8.5 8.5 0 1 1 13.5 22a8.481 8.481 0 0 1-2.99-.542c-.688-.258-1.51.206-1.51.94z" fill="#263745"/><rect x="4" y="5" width="3" height="2" rx="1" fill="#263745"/><rect x="4" y="20" width="3" height="2" rx="1" fill="#263745"/><rect x="2" y="15" width="5" height="2" rx="1" fill="#263745"/><rect y="10" width="7" height="2" rx="1" fill="#263745"/><circle cx="14" cy="13" r="2" fill="#263745"/><rect x="13.067" y="12.678" width="6" height="2" rx="1" transform="rotate(-45 13.067 12.678)" fill="#263745"/></svg>