<svg width="24" height="24" fill="none" xmlns="http://www.w3.org/2000/svg"><path fill="none" d="M0 0h24v22H0z"/><path fill-rule="evenodd" clip-rule="evenodd" d="M19 9h2A9 9 0 1 0 3 9h2a7 7 0 0 1 14 0z" fill="#45D6AD"/><mask id="a" fill="#fff"><path d="M0 12a3 3 0 0 1 3-3h3a1 1 0 0 1 1 1v6a1 1 0 0 1-1 1H3a3 3 0 0 1-3-3v-2z"/></mask><path d="M0 12a3 3 0 0 1 3-3h3a1 1 0 0 1 1 1v6a1 1 0 0 1-1 1H3a3 3 0 0 1-3-3v-2z" stroke="#45D6AD" stroke-width="4" mask="url(#a)"/><mask id="b" fill="#fff"><path d="M17 10a1 1 0 0 1 1-1h3a3 3 0 0 1 3 3v2a3 3 0 0 1-3 3h-3a1 1 0 0 1-1-1v-6z"/></mask><path d="M17 10a1 1 0 0 1 1-1h3a3 3 0 0 1 3 3v2a3 3 0 0 1-3 3h-3a1 1 0 0 1-1-1v-6z" stroke="#45D6AD" stroke-width="4" mask="url(#b)"/><path fill-rule="evenodd" clip-rule="evenodd" d="M16 22c2.762 0 5-2.35 5-5.25 0-.614-.1-1.203-.285-1.75h-2.184c.294.495.469 1.09.469 1.75 0 1.888-1.434 3.25-3 3.25v2z" fill="#45D6AD"/><rect x="9" y="19" width="6" height="4" rx="2" stroke="#45D6AD" stroke-width="2"/><path fill="#45D6AD" d="M14 20h2v2h-2z"/></svg>
