<svg width="30" height="30" xmlns="http://www.w3.org/2000/svg"><path d="M15 0c4.074 0 4.585.017 6.184.09 1.597.073 2.687.327 3.642.698a7.352 7.352 0 0 1 2.656 1.73 7.353 7.353 0 0 1 1.73 2.656c.371.955.625 2.045.698 3.642.073 1.6.09 2.11.09 6.184s-.017 4.585-.09 6.184c-.073 1.597-.327 2.687-.698 3.642a7.352 7.352 0 0 1-1.73 2.656 7.353 7.353 0 0 1-2.656 1.73c-.955.371-2.045.625-3.642.698-1.6.073-2.11.09-6.184.09s-4.585-.017-6.184-.09c-1.597-.073-2.687-.327-3.642-.697a7.353 7.353 0 0 1-2.656-1.73 7.352 7.352 0 0 1-1.73-2.657C.416 23.87.162 22.78.09 21.184.017 19.584 0 19.074 0 15s.017-4.585.09-6.184c.073-1.597.327-2.687.697-3.642a7.353 7.353 0 0 1 1.73-2.656A7.352 7.352 0 0 1 5.175.788C6.13.417 7.22.163 8.816.09 10.416.017 10.926 0 15 0zm0 21a6 6 0 1 0 0-12 6 6 0 0 0 0 12zm9-14a2 2 0 1 0-4 0 2 2 0 0 0 4 0z" fill="#FFF" fill-rule="evenodd"/></svg>