<?xml version="1.0" encoding="iso-8859-1"?>
<!-- Generator: Adobe Illustrator 19.0.0, SVG Export Plug-In . SVG Version: 6.00 Build 0)  -->
<svg version="1.1" id="Capa_1" xmlns="http://www.w3.org/2000/svg" xmlns:xlink="http://www.w3.org/1999/xlink" x="0px" y="0px"
	 viewBox="0 0 512 512" style="enable-background:new 0 0 512 512;" xml:space="preserve">
<path style="fill:#B5E5DC;" d="M406.193,150.193c0-83.312-67.833-150.78-151.281-150.189
	c-81.98,0.581-148.828,67.69-149.104,149.672c-0.174,51.763,25.84,97.455,65.544,124.591c36.091,24.666,58.187,65.133,60.004,108.81
	l4.562,109.659C236.366,503.502,245.224,512,256,512l0,0c10.776,0,19.634-8.498,20.082-19.264l4.528-108.847
	c1.827-43.906,23.766-84.83,60.045-109.628C380.224,247.216,406.193,201.74,406.193,150.193z"/>
<path style="fill:#80C1B4;" d="M256,269.392c-28.392,0-55.833-10.227-77.267-28.799c-14.465-12.534-25.78-28.538-32.722-46.285
	c-5.355-13.699-8.069-28.157-8.069-42.975s2.714-29.277,8.068-42.972c6.944-17.751,18.259-33.755,32.722-46.288
	c21.435-18.572,48.875-28.8,77.268-28.8s55.833,10.227,77.267,28.799c14.465,12.534,25.78,28.538,32.722,46.285
	c5.355,13.699,8.069,28.158,8.069,42.976s-2.714,29.276-8.068,42.971c-6.944,17.751-18.259,33.755-32.722,46.288
	C311.833,259.165,284.392,269.392,256,269.392z"/>
<path style="fill:#2195F2;" d="M360.666,151.333c0,13.444-2.534,26.29-7.15,38.096c-6.243,15.957-16.287,30.009-29.02,41.042
	C306.139,246.378,282.197,256,256,256s-50.139-9.622-68.497-25.528c-12.733-11.033-22.777-25.085-29.02-41.042
	c-4.615-11.806-7.15-24.652-7.15-38.096s2.534-26.29,7.15-38.096c6.243-15.957,16.287-30.009,29.02-41.043
	c18.358-15.906,42.3-25.528,68.497-25.528s50.139,9.622,68.497,25.528c12.733,11.033,22.777,25.085,29.02,41.043
	C358.132,125.043,360.666,137.89,360.666,151.333z"/>
<path style="fill:#E4F4F0;" d="M353.517,189.43c-6.243,15.957-16.287,30.009-29.02,41.042C306.139,246.378,282.197,256,256,256
	s-50.139-9.622-68.497-25.528c-12.733-11.033-22.777-25.085-29.02-41.042H353.517z"/>
<path style="fill:#FE4080;" d="M324.497,230.472C306.139,246.378,282.197,256,256,256s-50.139-9.622-68.497-25.528H324.497z"/>
<path style="fill:#E4F4F0;" d="M353.517,113.237H158.483c6.243-15.957,16.287-30.009,29.02-41.043
	c18.358-15.905,42.3-25.527,68.497-25.527s50.139,9.622,68.497,25.528C337.23,83.228,347.274,97.28,353.517,113.237z"/>
<path style="fill:#FE4080;" d="M324.497,72.195H187.503c18.358-15.906,42.3-25.528,68.497-25.528S306.139,56.289,324.497,72.195z"/>
<g>
</g>
<g>
</g>
<g>
</g>
<g>
</g>
<g>
</g>
<g>
</g>
<g>
</g>
<g>
</g>
<g>
</g>
<g>
</g>
<g>
</g>
<g>
</g>
<g>
</g>
<g>
</g>
<g>
</g>
</svg>
