<svg width="180" height="60" fill="none" xmlns="http://www.w3.org/2000/svg"><path fill="none" d="M0 0h180v60H0z"/><path fill="none" d="M0 0h180v60H0z"/><path fill="none" d="M0 0h180v60H0z"/><path d="M21.15 18.66L38.815.487h-9.08L7.265 23.61a20.598 20.598 0 0 0-6.97 12.215 20.518 20.518 0 0 0 2.512 13.818 20.728 20.728 0 0 0 10.832 9.018 20.884 20.884 0 0 0 14.13.04 20.73 20.73 0 0 0 10.884-8.957 20.519 20.519 0 0 0 2.592-13.803 20.595 20.595 0 0 0-6.9-12.255A20.835 20.835 0 0 0 21.15 18.66zm-.407 34.782a14.284 14.284 0 0 1-7.956-2.392 14.147 14.147 0 0 1-5.251-6.403 14.046 14.046 0 0 1-.751-8.226 14.104 14.104 0 0 1 4.005-7.237l.068.063.883-.926a14.258 14.258 0 0 1 6.078-2.85c2.227-.453 4.53-.37 6.717.244a14.243 14.243 0 0 1 5.854 3.28 14.12 14.12 0 0 1 3.683 5.587 14.044 14.044 0 0 1-1.768 12.86 14.193 14.193 0 0 1-5.057 4.4 14.293 14.293 0 0 1-6.525 1.6h.02z" fill="#45D6AD"/><path d="M38.389 59.883h31.134v-6.778H44.518a29.21 29.21 0 0 1-6.13 6.778zM48.514 38.694c-.001 2.037-.235 4.067-.697 6.051l21.706-22.333v-9.345l-21.28 21.895c.175 1.236.265 2.483.27 3.732zM64.203 0L42.748 22.075a27.206 27.206 0 0 1 3.47 5.769L69.524 3.868V0h-5.32zM38.928 18.226L56.643 0h-9.08l-14.18 14.616a27.096 27.096 0 0 1 5.545 3.61z" fill="#415464"/><path fill-rule="evenodd" clip-rule="evenodd" d="M127.208 35.42c0-1.32-.372-1.91-.872-2.378-.422-.4-1.094-.487-2.163-.55h-9.806c-2.162 0-2.515.331-2.942.643a2.775 2.775 0 0 0-.936 2.285v6.48c0 1.286.446 2.129 1.294 2.504.363.156 1.148.321 3.736.321h11.062V42.29h-11.513a.706.706 0 0 1-.67-.446.7.7 0 0 1-.046-.28v-1.705h12.851l.005-4.438zm-3.858 1.949h-9.007v-1.686a.719.719 0 0 1 .441-.691.739.739 0 0 1 .284-.06h7.522a.764.764 0 0 1 .76.765v1.672z" fill="#45D6AD"/><path d="M80.384 32.497H76.51v12.258h3.874V32.497zM132.685 27.571h-3.854V44.75h3.854V27.57zM138.171 27.571h-3.849v17.17h3.849V27.57z" fill="#45D6AD"/><path fill-rule="evenodd" clip-rule="evenodd" d="M104.33 34.855h4.565v-2.368h-4.565v-4.955h-3.844V41.9c0 1.296.451 2.153 1.285 2.558.613.302 1.113.263 3.702.263h3.349v-2.436s-3.433.078-3.923-.073a.774.774 0 0 1-.549-.872l-.02-6.485z" fill="#45D6AD"/><path d="M80.384 27.561H76.53v2.46h3.854v-2.46z" fill="#45D6AD"/><path fill-rule="evenodd" clip-rule="evenodd" d="M98.408 33.452c-.628-.707-.981-.975-4.55-.975H82.011V44.75h3.844v-9.793h8.433a.722.722 0 0 1 .682.441.708.708 0 0 1 .053.28v9.067h3.879v-7.547c0-1.315.103-3.07-.49-3.746M159.971 32.735c-.368-.146-.746-.258-3.339-.258h-10.743v2.436h11.081c.208.01.404.098.549.247a.813.813 0 0 1 .231.552v1.647h-10.616c-1.206 0-1.828.697-1.828 2.407 0 0-.03 1.403 0 2.49-.038.548.038 1.099.225 1.617.284.54.736.775 1.643.848h14.459v-9.262a2.914 2.914 0 0 0-1.662-2.724zm-2.967 9.564h-7.139a.667.667 0 0 1-.696-.619v-1.154a.71.71 0 0 1 .696-.673h7.889v1.725a.712.712 0 0 1-.224.516.731.731 0 0 1-.526.205zM179.985 40.706v-.473a2.973 2.973 0 0 0-.77-2.314 2.402 2.402 0 0 0-1.559-.536h-9.845a.673.673 0 0 1-.643-.55v-1.267c0-.086.019-.17.054-.248a.65.65 0 0 1 .599-.4h11.605v-2.436H168.35c-2.613 0-3.246.059-3.751.331-.814.434-1.314 1.257-1.314 2.573v1.057c0 .828 0 1.759.78 2.573.779.813 1.471.774 2.451.837h8.988a.68.68 0 0 1 .671.663v1.14a.705.705 0 0 1-.671.638h-11.621v2.436h12.273c1.848 0 2.255-.068 2.559-.224 1.01-.521 1.206-1.179 1.275-2.402v-1.398" fill="#45D6AD"/><path d="M143.668 27.561h-3.839v2.46h3.839v-2.46zM143.668 32.497h-3.839V44.73h3.839V32.497z" fill="#45D6AD"/><path d="M78.653 54.3H76.56v-1.155h5.785v1.154h-2.079v5.584h-1.628l.015-5.584zM83.326 53.145h1.628v2.699h2.883v-2.7h1.632v6.739h-1.632v-2.88h-2.883v2.884h-1.628v-6.742zM90.906 53.145h5.168v1.154h-3.545v1.545h3.197v1.16h-3.197v1.729h3.648v1.154h-5.271v-6.742zM99.471 59.8v-1.238c.801.14 1.61.232 2.423.273.907 0 1.358-.234 1.358-.697V57.7a.659.659 0 0 0-.192-.487 1.038 1.038 0 0 0-.696-.176h-.794c-1.491 0-2.236-.588-2.236-1.764v-.487a1.382 1.382 0 0 1 .745-1.296 5.012 5.012 0 0 1 2.349-.414c.559 0 1.265.044 2.123.132v1.208a21.74 21.74 0 0 0-2.172-.19 2.996 2.996 0 0 0-1.108.136.488.488 0 0 0-.304.458v.488c0 .35.299.526.897.526h.814a2.667 2.667 0 0 1 1.682.429 1.584 1.584 0 0 1 .524 1.296v.419a1.628 1.628 0 0 1-.867 1.627c-.29.149-.601.253-.922.307a7.307 7.307 0 0 1-1.221.087 19.657 19.657 0 0 1-2.403-.2zM106.012 53.145h1.628v6.737h-1.628v-6.737zM110.974 56.448l-2.393-3.303h1.883l1.471 2.24 1.442-2.24h1.882l-2.392 3.303 2.505 3.41h-1.892l-1.545-2.387-1.559 2.387h-1.897l2.495-3.41zM117.745 54.3h-2.089v-1.155h5.796v1.154h-2.079v5.584h-1.628v-5.584zM122.393 53.145h1.628v2.699h2.888v-2.7h1.628v6.739h-1.628v-2.88h-2.888v2.884h-1.628v-6.742zM132.4 53.145h5.173v1.154h-3.54v1.545h3.197v1.16h-3.197v1.729h3.643v1.154H132.4v-6.742zM138.774 53.145h1.633v5.583h3.329v1.154h-4.962v-6.737zM144.834 53.145h5.173v1.154h-3.545v1.545h3.197v1.16h-3.197v1.729h3.648v1.154h-5.276v-6.742zM151.208 53.145h2.32l1.672 4.818 1.647-4.819h2.187v6.739h-1.471v-4.985h-.03l-1.716 4.984h-1.304l-1.765-4.984h-.044v4.984h-1.471l-.025-6.737zM160.495 53.145h5.173v1.154h-3.545v1.545h3.197v1.16h-3.197v1.729h3.648v1.154h-5.276v-6.742zM166.869 53.145h1.648l3.285 4.599v-4.6h1.471v6.739h-1.692l-3.28-4.673v4.672h-1.471l.039-6.737zM176.283 54.3h-2.094v-1.155h5.801v1.154h-2.079v5.584h-1.628v-5.584z" fill="#415464"/></svg>