<?xml version="1.0" encoding="UTF-8"?>
<svg width="38px" height="53px" viewBox="0 0 38 53" version="1.1" xmlns="http://www.w3.org/2000/svg" xmlns:xlink="http://www.w3.org/1999/xlink">
    <!-- Generator: Sketch 50.2 (55047) - http://www.bohemiancoding.com/sketch -->
    <title>Group 2</title>
    <desc>Created with Sketch.</desc>
    <defs>
        <linearGradient x1="100%" y1="0%" x2="0%" y2="100%" id="linearGradient-1">
            <stop stop-color="#ffe5d9" offset="0%"></stop>
            <stop stop-color="#3242FB" offset="100%"></stop>
        </linearGradient>
    </defs>
    <g id="Page-1" stroke="none" stroke-width="1" fill="none" fill-rule="evenodd">
        <g id="Group-2" fill-rule="nonzero">
            <g id="marker" fill="url(#linearGradient-1)">
                <path d="M19,0 C8.52334342,0 0,8.61064721 0,19.1945117 C0,32.3294183 17.0031387,51.6122289 17.7270624,52.4266908 C18.4070281,53.1917758 19.5942015,53.1904301 20.2729376,52.4266908 C20.9968613,51.6122289 38,32.3294183 38,19.1945117 C37.9997951,8.61064721 29.4765541,0 19,0 Z" id="Shape"></path>
            </g>
            <g id="ferris-wheel" transform="translate(7.000000, 5.000000)">
                <path d="M17.315051,26.3821895 L18.1689342,26.0689655 L13.1534776,11.9470636 C13.0890377,11.7618113 12.9183053,11.6381583 12.7267574,11.637931 L11.8197279,11.637931 C11.6281799,11.6381583 11.4574476,11.7618113 11.3930077,11.9470636 L6.43069728,26.2212588 L7.2845805,26.5344828 L9.71004286,19.5517241 L14.8346709,19.5517241 L17.315051,26.3821895 Z M10.0337922,18.6206897 L12.1394912,12.5689655 L12.406994,12.5689655 L14.5126931,18.6206897 L10.0337922,18.6206897 Z" id="Shape" fill="#4DB7E5"></path>
                <polygon id="Shape" fill="#4DB7E5" points="4.10997732 25.137931 20.4365079 25.137931 20.4365079 27 4.10997732 27"></polygon>
                <path d="M12.2732426,18.1551724 C9.01714853,18.1551724 6.37755102,15.4457166 6.37755102,12.1034483 C6.37755102,8.76117996 9.01714853,6.05172414 12.2732426,6.05172414 C15.5293367,6.05172414 18.1689342,8.76117996 18.1689342,12.1034483 C18.1651697,15.4441255 15.5277866,18.1513083 12.2732426,18.1551724 Z M12.2732426,6.98275862 C9.51805204,6.98275862 7.2845805,9.27534014 7.2845805,12.1034483 C7.2845805,14.9315564 9.51805204,17.2241379 12.2732426,17.2241379 C15.0284332,17.2241379 17.2619048,14.9315564 17.2619048,12.1034483 C17.2585831,9.27670393 15.0271046,6.98616819 12.2732426,6.98275862 Z" id="Shape" fill="#E04646"></path>
                <g id="Group" fill="#4DB7E5">
                    <path d="M11.8197279,0 L12.7267574,0 C13.7285643,0 14.5408163,0.833748653 14.5408163,1.86206897 C14.5408163,2.89038928 13.7285643,3.72413793 12.7267574,3.72413793 L11.8197279,3.72413793 C10.8179209,3.72413793 10.0056689,2.89038928 10.0056689,1.86206897 C10.0056689,0.833748653 10.8179209,0 11.8197279,0 Z" id="Shape"></path>
                    <path d="M11.8197279,20.4827586 L12.7267574,20.4827586 C13.7285643,20.4827586 14.5408163,21.3165073 14.5408163,22.3448276 C14.5408163,23.3731479 13.7285643,24.2068966 12.7267574,24.2068966 L11.8197279,24.2068966 C10.8179209,24.2068966 10.0056689,23.3731479 10.0056689,22.3448276 C10.0056689,21.3165073 10.8179209,20.4827586 11.8197279,20.4827586 Z" id="Shape"></path>
                    <path d="M22.2505669,10.2413793 L23.1575964,10.2413793 C24.1594033,10.2413793 24.9716553,11.075128 24.9716553,12.1034483 C24.9716553,13.1317686 24.1594033,13.9655172 23.1575964,13.9655172 L22.2505669,13.9655172 C21.2487599,13.9655172 20.4365079,13.1317686 20.4365079,12.1034483 C20.4365079,11.075128 21.2487599,10.2413793 22.2505669,10.2413793 Z" id="Shape"></path>
                    <path d="M1.84240363,10.2413793 L2.74943311,10.2413793 C3.75124008,10.2413793 4.56349206,11.075128 4.56349206,12.1034483 C4.56349206,13.1317686 3.75124008,13.9655172 2.74943311,13.9655172 L1.84240363,13.9655172 C0.840596655,13.9655172 0.0283446712,13.1317686 0.0283446712,12.1034483 C0.0283446712,11.075128 0.840596655,10.2413793 1.84240363,10.2413793 Z" id="Shape"></path>
                    <path d="M19.0759637,2.79310345 L19.9829932,2.79310345 C20.9848002,2.79310345 21.7970522,3.6268521 21.7970522,4.65517241 C21.7970522,5.68349273 20.9848002,6.51724138 19.9829932,6.51724138 L19.0759637,6.51724138 C18.0741567,6.51724138 17.2619048,5.68349273 17.2619048,4.65517241 C17.2619048,3.6268521 18.0741567,2.79310345 19.0759637,2.79310345 Z" id="Shape"></path>
                    <path d="M4.56349206,2.79310345 L5.47052154,2.79310345 C6.47232851,2.79310345 7.2845805,3.6268521 7.2845805,4.65517241 C7.2845805,5.68349273 6.47232851,6.51724138 5.47052154,6.51724138 L4.56349206,6.51724138 C3.56168509,6.51724138 2.74943311,5.68349273 2.74943311,4.65517241 C2.74943311,3.6268521 3.56168509,2.79310345 4.56349206,2.79310345 Z" id="Shape"></path>
                    <path d="M19.0759637,17.6896552 L19.9829932,17.6896552 C20.9848002,17.6896552 21.7970522,18.5234038 21.7970522,19.5517241 C21.7970522,20.5800445 20.9848002,21.4137931 19.9829932,21.4137931 L19.0759637,21.4137931 C18.0741567,21.4137931 17.2619048,20.5800445 17.2619048,19.5517241 C17.2619048,18.5234038 18.0741567,17.6896552 19.0759637,17.6896552 Z" id="Shape"></path>
                    <path d="M4.56349206,17.6896552 L5.47052154,17.6896552 C6.47232851,17.6896552 7.2845805,18.5234038 7.2845805,19.5517241 C7.2845805,20.5800445 6.47232851,21.4137931 5.47052154,21.4137931 L4.56349206,21.4137931 C3.56168509,21.4137931 2.74943311,20.5800445 2.74943311,19.5517241 C2.74943311,18.5234038 3.56168509,17.6896552 4.56349206,17.6896552 Z" id="Shape"></path>
                </g>
                <path d="M12.2732426,1.39655172 C6.51240964,1.39655172 1.84240363,6.19015186 1.84240363,12.1034483 C1.84240363,18.0167447 6.51240964,22.8103448 12.2732426,22.8103448 C18.0340756,22.8103448 22.7040816,18.0167447 22.7040816,12.1034483 C22.6976598,6.1928795 18.0314183,1.40314351 12.2732426,1.39655172 Z M12.7267574,2.35122575 C14.9338772,2.45737643 17.0355902,3.35226967 18.6678447,4.88088462 L12.7267574,10.9796606 L12.7267574,2.35122575 Z M11.8197279,10.9796606 L5.87864053,4.88133925 C7.51089501,3.35249695 9.61260805,2.45760372 11.8197279,2.35122575 L11.8197279,10.9796606 Z M11.1784297,11.637931 L2.77246315,11.637931 C2.87543401,9.37239863 3.74703265,7.21506266 5.23645658,5.53960973 L11.1784297,11.637931 Z M11.1784297,12.5689655 L5.23734235,18.6672868 C3.747697,16.9920612 2.87565544,14.8347252 2.77246315,12.5689655 L11.1784297,12.5689655 Z M11.8197279,13.227236 L11.8197279,21.8556708 C9.61260805,21.7495201 7.51089501,20.8546269 5.87864053,19.3260119 L11.8197279,13.227236 Z M12.7267574,13.227236 L18.6678447,19.3255573 C17.0355902,20.8543996 14.9338772,21.7492928 12.7267574,21.8556708 L12.7267574,13.227236 Z M13.3680556,12.5689655 L21.7740221,12.5689655 C21.6710512,14.8344979 20.7994526,16.9918339 19.3100287,18.6672868 L13.3680556,12.5689655 Z M13.3680556,11.637931 L19.3091429,5.53960973 C20.7987883,7.21483532 21.6708298,9.37217134 21.7740221,11.637931 L13.3680556,11.637931 Z" id="Shape" fill="#E94F4F"></path>
                <path d="M14.0873016,12.1034483 C14.0873016,13.1317686 13.2750496,13.9655172 12.2732426,13.9655172 C11.2714357,13.9655172 10.4591837,13.1317686 10.4591837,12.1034483 C10.4591837,11.075128 11.2714357,10.2413793 12.2732426,10.2413793 C13.2750496,10.2413793 14.0873016,11.075128 14.0873016,12.1034483 Z" id="Shape" fill="#FDBB3D"></path>
            </g>
        </g>
    </g>
</svg>