<?xml version="1.0" encoding="UTF-8"?>
<svg width="38px" height="53px" viewBox="0 0 38 53" version="1.1" xmlns="http://www.w3.org/2000/svg" xmlns:xlink="http://www.w3.org/1999/xlink">
    <!-- Generator: Sketch 50.2 (55047) - http://www.bohemiancoding.com/sketch -->
    <title>Group 2</title>
    <desc>Created with Sketch.</desc>
    <defs>
        <linearGradient x1="100%" y1="0%" x2="0%" y2="100%" id="linearGradient-1">
            <stop stop-color="#ffe5d9" offset="0%"></stop>
            <stop stop-color="#3242FB" offset="100%"></stop>
        </linearGradient>
    </defs>
    <g id="Page-1" stroke="none" stroke-width="1" fill="none" fill-rule="evenodd">
        <g id="Group-2" fill-rule="nonzero">
            <g id="marker" fill="url(#linearGradient-1)">
                <path d="M19,0 C8.52334342,0 0,8.61064721 0,19.1945117 C0,32.3294183 17.0031387,51.6122289 17.7270624,52.4266908 C18.4070281,53.1917758 19.5942015,53.1904301 20.2729376,52.4266908 C20.9968613,51.6122289 38,32.3294183 38,19.1945117 C37.9997951,8.61064721 29.4765541,0 19,0 Z" id="Shape"></path>
            </g>
            <g id="tree" transform="translate(7.000000, 5.000000)">
                <path d="M22.8027344,25 C22.397995,25 22.0703125,24.6723175 22.0703125,24.2675781 L22.0703125,21.2890625 L19.0917969,21.2890625 L19.0917969,24.2675781 C19.0917969,24.6723175 18.7641144,25 18.359375,25 C17.9546356,25 17.6269531,24.6723175 17.6269531,24.2675781 L17.6269531,18.359375 C17.6269531,17.9546356 17.9546356,17.6269531 18.359375,17.6269531 L22.8027344,17.6269531 C23.2074737,17.6269531 23.5351562,17.9546356 23.5351562,18.359375 L23.5351562,24.2675781 C23.5351562,24.6723175 23.2074737,25 22.8027344,25 Z" id="Shape" fill="#FF9F00"></path>
                <polygon id="Shape" fill="#68544F" points="11.0351562 18.359375 13.9648438 18.359375 13.9648438 24.2675781 11.0351562 24.2675781"></polygon>
                <polygon id="Shape" fill="#3E322E" points="12.5 18.359375 13.9648438 18.359375 13.9648438 24.2675781 12.5 24.2675781"></polygon>
                <path d="M17.4365997,8.36906436 C17.5683975,7.78331758 17.6269531,7.21187593 17.6269531,6.640625 C17.6269531,3.00788877 15.3270722,0 12.5,0 C9.67292783,0 7.37304688,3.00788877 7.37304688,6.640625 C7.37304688,7.21187593 7.43160249,7.78331758 7.56340029,8.36906436 C6.49414062,9.71679688 5.90820312,11.4307403 5.90820312,13.2324219 C5.90820312,17.2754288 8.86726377,20.5566406 12.5,20.5566406 C16.1327362,20.5566406 19.0917969,17.2754288 19.0917969,13.2324219 C19.0917969,11.4307403 18.5058594,9.71679688 17.4365997,8.36906436 Z" id="Shape" fill="#00B44B"></path>
                <path d="M19.0917969,13.2324219 C19.0917969,17.2754288 16.1327362,20.5566406 12.5,20.5566406 L12.5,0 C15.3270722,0 17.6269531,3.00788877 17.6269531,6.640625 C17.6269531,7.21187593 17.5683975,7.78331758 17.4365997,8.36906436 C18.5058594,9.71679688 19.0917969,11.4307403 19.0917969,13.2324219 Z" id="Shape" fill="#00A03C"></path>
                <polygon id="Shape" fill="#725D57" points="5.17578125 18.359375 8.10546875 18.359375 8.10546875 24.2675781 5.17578125 24.2675781"></polygon>
                <polygon id="Shape" fill="#53433F" points="6.640625 18.359375 8.10546875 18.359375 8.10546875 24.2675781 6.640625 24.2675781"></polygon>
                <path d="M11.5772247,8.36906436 C11.7090225,7.78331758 11.7675781,7.21187593 11.7675781,6.640625 C11.7675781,3.00788877 9.46769717,0 6.640625,0 C3.81355283,0 1.51367188,3.00788877 1.51367188,6.640625 C1.51367188,7.21187593 1.57222749,7.78331758 1.70402529,8.36906436 C0.634765625,9.71679688 0,11.4307403 0,13.2324219 C0,17.2754288 3.00788877,20.5566406 6.640625,20.5566406 C10.2733612,20.5566406 13.2324219,17.2754288 13.2324219,13.2324219 C13.2324219,11.4307403 12.6464844,9.71679688 11.5772247,8.36906436 Z" id="Shape" fill="#70DA40"></path>
                <path d="M25,24.2675781 C25,24.6778488 24.6778488,25 24.2675781,25 L0.732421875,25 C0.322151172,25 0,24.6778488 0,24.2675781 C0,23.8573074 0.322151172,23.5351562 0.732421875,23.5351562 L24.2675781,23.5351562 C24.6778488,23.5351562 25,23.8573074 25,24.2675781 Z" id="Shape" fill="#90E36A"></path>
                <path d="M24.2675781,22.0214844 L16.8945312,22.0214844 C16.4897919,22.0214844 16.1621094,21.6938019 16.1621094,21.2890625 C16.1621094,20.8843231 16.4897919,20.5566406 16.8945312,20.5566406 L24.2675781,20.5566406 C24.6723175,20.5566406 25,20.8843231 25,21.2890625 C25,21.6938019 24.6723175,22.0214844 24.2675781,22.0214844 Z" id="Shape" fill="#FDBF00"></path>
                <g id="Group" transform="translate(6.640625, 0.000000)" fill="#56C225">
                    <path d="M6.59179688,13.2324219 C6.59179688,17.2754288 3.63273623,20.5566406 0,20.5566406 L0,0 C2.82707217,0 5.12695312,3.00788877 5.12695312,6.640625 C5.12695312,7.21187593 5.06839751,7.78331758 4.93659971,8.36906436 C6.00585938,9.71679688 6.59179688,11.4307403 6.59179688,13.2324219 Z" id="Shape"></path>
                    <path d="M18.359375,24.2675781 C18.359375,24.6778488 18.0372238,25 17.6269531,25 L5.859375,25 L5.859375,23.5351562 L17.6269531,23.5351562 C18.0372238,23.5351562 18.359375,23.8573074 18.359375,24.2675781 Z" id="Shape"></path>
                </g>
            </g>
        </g>
    </g>
</svg>