<?xml version="1.0" encoding="UTF-8"?>
<svg width="38px" height="53px" viewBox="0 0 38 53" version="1.1" xmlns="http://www.w3.org/2000/svg" xmlns:xlink="http://www.w3.org/1999/xlink">
    <!-- Generator: Sketch 50.2 (55047) - http://www.bohemiancoding.com/sketch -->
    <title>Group 2</title>
    <desc>Created with Sketch.</desc>
    <defs>
        <linearGradient x1="100%" y1="0%" x2="0%" y2="100%" id="linearGradient-1">
            <stop stop-color="#ffe5d9" offset="0%"></stop>
            <stop stop-color="#3242FB" offset="100%"></stop>
        </linearGradient>
    </defs>
    <g id="Page-1" stroke="none" stroke-width="1" fill="none" fill-rule="evenodd">
        <g id="Group-2" fill-rule="nonzero">
            <g id="marker" fill="url(#linearGradient-1)">
                <path d="M19,0 C8.52334342,0 0,8.61064721 0,19.1945117 C0,32.3294183 17.0031387,51.6122289 17.7270624,52.4266908 C18.4070281,53.1917758 19.5942015,53.1904301 20.2729376,52.4266908 C20.9968613,51.6122289 38,32.3294183 38,19.1945117 C37.9997951,8.61064721 29.4765541,0 19,0 Z" id="Shape"></path>
            </g>
            <g id="cityscape" transform="translate(7.000000, 7.000000)">
                <path d="M24,14.2142992 L24,22.5714015 C24,22.8080789 23.7910201,23 23.5333058,23 L17,23 L17,14 L17.9333884,14 L17.9333884,14.2142992 L18.1479438,14 L23.7852381,14 L24,14.2142992 Z" id="Shape" fill="#4482C3"></path>
                <path d="M9.5,8 C9.22389381,8 9,7.83207036 9,7.62497926 L9,5.37502074 C9,5.16792964 9.22389381,5 9.5,5 C9.77610619,5 10,5.16792964 10,5.37502074 L10,7.62497926 C10,7.83207036 9.77610619,8 9.5,8 Z" id="Shape" fill="#2C3E50"></path>
                <path d="M12,10 L7,10 C7.061558,8.90884952 8.14944791,8.03876107 9.50043811,8 C10.8509902,8.03911503 11.9384419,8.90920353 12,10 Z" id="Shape" fill="#3D324C"></path>
                <path d="M2.42859853,11 L4.57159116,11 C4.80826857,11 5,11.2238938 5,11.5 L5,14 L2,14 L2,11.5 C2,11.2238938 2.19192111,11 2.42859853,11 Z" id="Shape" fill="#285680"></path>
                <path d="M13.5000277,3 L16.4999724,3 C16.7760939,3 17,3.20354801 17,3.45456374 L17,7.54543631 C17,7.79645204 16.7760939,8 16.4999724,8 L13.5000277,8 C13.2239062,8 13,7.79645204 13,7.54543631 L13,3.45456374 C13,3.20354801 13.2239062,3 13.5000277,3 Z" id="Shape" fill="#AF8066"></path>
                <path d="M13.4000177,7 L16.5999823,7 C16.820877,7 17,7.19591787 17,7.43752415 L17,13.5624758 C17,13.8040821 16.820877,14 16.5999823,14 L13.4000177,14 C13.179123,14 13,13.8040821 13,13.5624758 L13,7.43752415 C13,7.19591787 13.179123,7 13.4000177,7 Z" id="Shape" fill="#CBB292"></path>
                <path d="M0.473717307,12 L9,12 L9,24 L0.473717307,24 C0.212124741,24 0,23.8080789 0,23.5714015 L0,12.4285985 C0,12.1919211 0.212124741,12 0.473717307,12 Z" id="Shape" fill="#4482C3"></path>
                <path d="M11.6151071,23 C11.8361647,22.9915403 12.0081804,22.8204855 11.9996994,22.6176222 L11.9996994,10.3823778 C11.9996994,10.1710549 11.813303,10 11.5830271,10 L7.41667239,10 C7.18658076,10 7,10.1710549 7,10.3823778 L7,23" id="Shape" fill="#556080"></path>
                <path d="M18,12.4285985 L18,24 L12.4285985,24 C12.1917315,24 12,23.8080789 12,23.5714015 L12,12.4285985 C12,12.1919211 12.1917315,12 12.4285985,12 L17.5714014,12 C17.8080788,12 18,12.1919211 18,12.4285985 Z" id="Shape" fill="#7F6E5D"></path>
                <path d="M14.7108982,1.1278132 L13.0544581,2.6961334 C12.9971536,2.75065678 12.9837759,2.82731504 13.0205147,2.89258032 C13.0570537,2.95784561 13.1371204,2.99983673 13.2251737,2.99999951 L16.7740607,2.99999951 C16.860916,3.00016226 16.9401839,2.95947315 16.977921,2.89550992 C17.0154586,2.83170943 17.0044768,2.75570224 16.9499677,2.70069057 L15.4045425,1.13709031 C15.3204826,1.05196872 15.1942928,1.00167702 15.0603161,1.00004948 C14.9263393,0.998259149 14.7983525,1.04513298 14.7108982,1.1278132 Z" id="Shape" fill="#7F6E5D"></path>
                <path d="M9,3.53446548 C9,4.3438541 8.25777303,5 7.34219905,5 L1.89465963,5 C0.848289369,5 0,4.25009253 0,3.32507696 C0,2.40006139 0.848289369,1.64996864 1.89465963,1.64996864 C2.05794534,1.6505245 2.22060225,1.67016628 2.37801895,1.7087086 C2.4836621,0.711426206 3.45331534,-0.0386665483 4.58562544,0.00154345162 C5.71772601,0.0415681638 6.61653123,0.857812862 6.63162311,1.85935715 C6.63183271,1.98461968 6.61757927,2.10951163 6.58907239,2.23217994 C6.82131963,2.1243356 7.07976804,2.06818981 7.34219905,2.06874572 C8.25777303,2.06874572 9,2.72507685 9,3.53446548 Z" id="Shape" fill="#A5A5A4"></path>
                <path d="M24,1.99990165 C24,3.10457738 23.1045774,4 22.0000984,4 C20.8954226,4 20,3.10457738 20,1.99990165 C20,0.895422572 20.8954226,0 22.0000984,0 C23.1045774,0 24,0.895422572 24,1.99990165 Z" id="Shape" fill="#F0C419"></path>
                <path d="M8.49988933,14 C8.22372203,14 8,13.7761062 8,13.5 L8,12.5 C8,12.2238938 8.22372203,12 8.49988933,12 C8.77605664,12 9,12.2238938 9,12.5 L9,13.5 C9,13.7761062 8.77605664,14 8.49988933,14 Z" id="Shape" fill="#2C3E50"></path>
                <path d="M10.5,14 C10.2238938,14 10,13.7761062 10,13.5 L10,12.5 C10,12.2238938 10.2238938,12 10.5,12 C10.7761062,12 11,12.2238938 11,12.5 L11,13.5 C11,13.7761062 10.7761062,14 10.5,14 Z" id="Shape" fill="#2C3E50"></path>
                <path d="M8.49988933,14 C8.22372203,14 8,13.7761062 8,13.5 L8,12.5 C8,12.2238938 8.22372203,12 8.49988933,12 C8.77605664,12 9,12.2238938 9,12.5 L9,13.5 C9,13.7761062 8.77605664,14 8.49988933,14 Z" id="Shape" fill="#2C3E50"></path>
                <path d="M10.5,14 C10.2238938,14 10,13.7761062 10,13.5 L10,12.5 C10,12.2238938 10.2238938,12 10.5,12 C10.7761062,12 11,12.2238938 11,12.5 L11,13.5 C11,13.7761062 10.7761062,14 10.5,14 Z" id="Shape" fill="#2C3E50"></path>
                <path d="M8.49988933,17 C8.22372203,17 8,16.7760814 8,16.4999446 L8,15.499834 C8,15.2236973 8.22372203,15 8.49988933,15 C8.77605664,15 9,15.2236973 9,15.499834 L9,16.4999446 C9,16.7760814 8.77605664,17 8.49988933,17 Z" id="Shape" fill="#2C3E50"></path>
                <path d="M10.5,17 C10.2238938,17 10,16.7760814 10,16.4999446 L10,15.499834 C10,15.2236973 10.2238938,15 10.5,15 C10.7761062,15 11,15.2236973 11,15.499834 L11,16.4999446 C11,16.7760814 10.7761062,17 10.5,17 Z" id="Shape" fill="#2C3E50"></path>
                <path d="M8.49988933,19 C8.22372203,19 8,18.7760814 8,18.4999447 L8,17.5000553 C8,17.2239185 8.22372203,17 8.49988933,17 C8.77605664,17 9,17.2239185 9,17.5000553 L9,18.4999447 C9,18.7760814 8.77605664,19 8.49988933,19 Z" id="Shape" fill="#2C3E50"></path>
                <path d="M10.5,19 C10.2238938,19 10,18.7760814 10,18.4999447 L10,17.5000553 C10,17.2239185 10.2238938,17 10.5,17 C10.7761062,17 11,17.2239185 11,17.5000553 L11,18.4999447 C11,18.7760814 10.7761062,19 10.5,19 Z" id="Shape" fill="#2C3E50"></path>
                <path d="M8.49988933,22 C8.22372203,22 8,21.7763027 8,21.5001659 L8,20.5000553 C8,20.2239186 8.22372203,20 8.49988933,20 C8.77605664,20 9,20.2239186 9,20.5000553 L9,21.5001659 C9,21.7763027 8.77605664,22 8.49988933,22 Z" id="Shape" fill="#2C3E50"></path>
                <path d="M10.5,22 C10.2238938,22 10,21.7763027 10,21.5001659 L10,20.5000553 C10,20.2239186 10.2238938,20 10.5,20 C10.7761062,20 11,20.2239186 11,20.5000553 L11,21.5001659 C11,21.7763027 10.7761062,22 10.5,22 Z" id="Shape" fill="#2C3E50"></path>
                <path d="M13.5,14 C13.2238938,14 13,13.7761062 13,13.5 L13,12.5 C13,12.2238938 13.2238938,12 13.5,12 C13.7761062,12 14,12.2238938 14,12.5 L14,13.5 C14,13.7761062 13.7761062,14 13.5,14 Z" id="Shape" fill="#2C3E50"></path>
                <path d="M15.5,12 C15.2238938,12 15,11.7763027 15,11.4999447 L15,10.5000553 C15,10.2239186 15.2238938,10 15.5,10 C15.7761062,10 16,10.2239186 16,10.5000553 L16,11.4999447 C16,11.7763027 15.7761062,12 15.5,12 Z" id="Shape" fill="#2C3E50"></path>
                <path d="M15.5,6 C15.2238938,6 15,5.77608148 15,5.49994473 L15,4.50005533 C15,4.22391858 15.2238938,4 15.5,4 C15.7761062,4 16,4.22391858 16,4.50005533 L16,5.49994473 C16,5.77608148 15.7761062,6 15.5,6 Z" id="Shape" fill="#2C3E50"></path>
                <path d="M16.5000001,14 C16.2238939,14 16,13.7761062 16,13.5 L16,12.5 C16,12.2238938 16.2238939,12 16.5000001,12 C16.7761063,12 17,12.2238938 17,12.5 L17,13.5 C17,13.7761062 16.7761063,14 16.5000001,14 Z" id="Shape" fill="#2C3E50"></path>
                <path d="M13.5,17 C13.2238938,17 13,16.7760814 13,16.4999446 L13,15.499834 C13,15.2236973 13.2238938,15 13.5,15 C13.7761062,15 14,15.2236973 14,15.499834 L14,16.4999446 C14,16.7760814 13.7761062,17 13.5,17 Z" id="Shape" fill="#2C3E50"></path>
                <path d="M16.5000001,17 C16.2238939,17 16,16.7760814 16,16.4999446 L16,15.499834 C16,15.2236973 16.2238939,15 16.5000001,15 C16.7761063,15 17,15.2236973 17,15.499834 L17,16.4999446 C17,16.7760814 16.7761063,17 16.5000001,17 Z" id="Shape" fill="#2C3E50"></path>
                <path d="M13.5,19 C13.2238938,19 13,18.7760814 13,18.4999447 L13,17.5000553 C13,17.2239185 13.2238938,17 13.5,17 C13.7761062,17 14,17.2239185 14,17.5000553 L14,18.4999447 C14,18.7760814 13.7761062,19 13.5,19 Z" id="Shape" fill="#2C3E50"></path>
                <path d="M16.5000001,19 C16.2238939,19 16,18.7760814 16,18.4999447 L16,17.5000553 C16,17.2239185 16.2238939,17 16.5000001,17 C16.7761063,17 17,17.2239185 17,17.5000553 L17,18.4999447 C17,18.7760814 16.7761063,19 16.5000001,19 Z" id="Shape" fill="#2C3E50"></path>
                <path d="M14.5000553,20 L15.500166,20 C15.7763027,20 16,20.2239103 16,20.5000369 L16,23 L14,23 L14,20.5000369 C14,20.2239103 14.2239186,20 14.5000553,20 Z" id="Shape" fill="#CBB292"></path>
                <g id="Group" transform="translate(1.000000, 8.000000)" fill="#2C3E50">
                    <path d="M19.0337442,9.01749491 L18.6282403,9.01749491 C18.404316,9.01749491 18.2227364,8.84254566 18.2227364,8.62679792 C18.2227364,8.41105018 18.404316,8.23610084 18.6282403,8.23610084 L19.0337442,8.23610084 C19.2576685,8.23610084 19.4392482,8.41105018 19.4392482,8.62679792 C19.4392482,8.84254566 19.2576685,9.01749491 19.0337442,9.01749491 Z" id="Shape"></path>
                    <path d="M19.0337442,10.580283 L18.6282403,10.580283 C18.404316,10.580283 18.2227364,10.4053338 18.2227364,10.189586 C18.2227364,9.9738383 18.404316,9.79888897 18.6282403,9.79888897 L19.0337442,9.79888897 C19.2576685,9.79888897 19.4392482,9.9738383 19.4392482,10.189586 C19.4392482,10.4053338 19.2576685,10.580283 19.0337442,10.580283 Z" id="Shape"></path>
                    <path d="M19.0337442,12.1428983 L18.6282403,12.1428983 C18.404316,12.1428983 18.2227364,11.967949 18.2227364,11.7522013 C18.2227364,11.5364535 18.404316,11.3615042 18.6282403,11.3615042 L19.0337442,11.3615042 C19.2576685,11.3615042 19.4392482,11.5364535 19.4392482,11.7522013 C19.4392482,11.967949 19.2576685,12.1428983 19.0337442,12.1428983 Z" id="Shape"></path>
                    <path d="M19.0337442,13.7056864 L18.6282403,13.7056864 C18.404316,13.7056864 18.2227364,13.5307371 18.2227364,13.3149894 C18.2227364,13.0992416 18.404316,12.9242924 18.6282403,12.9242924 L19.0337442,12.9242924 C19.2576685,12.9242924 19.4392482,13.0992416 19.4392482,13.3149894 C19.4392482,13.5307371 19.2576685,13.7056864 19.0337442,13.7056864 Z" id="Shape"></path>
                    <path d="M1.59815199,9.40819198 L0.422190581,9.40819198 C0.198266289,9.40819198 0.0168661155,9.23324265 0.0168661155,9.01749491 C0.0168661155,8.80174717 0.198266289,8.62679792 0.422190581,8.62679792 L1.59815199,8.62679792 C1.82207628,8.62679792 2.00365592,8.80174717 2.00365592,9.01749491 C2.00365592,9.23324265 1.82207628,9.40819198 1.59815199,9.40819198 Z" id="Shape"></path>
                    <path d="M1.59815199,7.84557672 L0.422190581,7.84557672 C0.198266289,7.84557672 0.0168661155,7.67062743 0.0168661155,7.45487969 C0.0168661155,7.23913195 0.198266289,7.06418266 0.422190581,7.06418266 L1.59815199,7.06418266 C1.82207628,7.06418266 2.00365592,7.23913195 2.00365592,7.45487969 C2.00365592,7.67062743 1.82207628,7.84557672 1.59815199,7.84557672 Z" id="Shape"></path>
                    <path d="M1.59815199,6.2827886 L0.422190581,6.2827886 C0.198266289,6.2827886 0.0168661155,6.10783931 0.0168661155,5.89209157 C0.0168661155,5.67634382 0.198266289,5.50139453 0.422190581,5.50139453 L1.59815199,5.50139453 C1.82207628,5.50139453 2.00365592,5.67634382 2.00365592,5.89209157 C2.00365592,6.10783931 1.82207628,6.2827886 1.59815199,6.2827886 Z" id="Shape"></path>
                    <path d="M1.59815199,10.9709801 L0.422190581,10.9709801 C0.198266289,10.9709801 0.0168661155,10.7960308 0.0168661155,10.580283 C0.0168661155,10.3645353 0.198266289,10.189586 0.422190581,10.189586 L1.59815199,10.189586 C1.82207628,10.189586 2.00365592,10.3645353 2.00365592,10.580283 C2.00365592,10.7960308 1.82207628,10.9709801 1.59815199,10.9709801 Z" id="Shape"></path>
                    <path d="M1.59815199,12.5335953 L0.422190581,12.5335953 C0.198266289,12.5335953 0.0168661155,12.358646 0.0168661155,12.1428983 C0.0168661155,11.9271506 0.198266289,11.7522013 0.422190581,11.7522013 L1.59815199,11.7522013 C1.82207628,11.7522013 2.00365592,11.9271506 2.00365592,12.1428983 C2.00365592,12.358646 1.82207628,12.5335953 1.59815199,12.5335953 Z" id="Shape"></path>
                    <path d="M1.59815199,14.0962106 L0.422190581,14.0962106 C0.198266289,14.0962106 0.0168661155,13.9214342 0.0168661155,13.7056864 C0.0168661155,13.4897658 0.198266289,13.3149894 0.422190581,13.3149894 L1.59815199,13.3149894 C1.82207628,13.3149894 2.00365592,13.4897658 2.00365592,13.7056864 C2.00365592,13.9214342 1.82207628,14.0962106 1.59815199,14.0962106 Z" id="Shape"></path>
                    <path d="M20.6557599,9.01749491 C20.6026497,9.01697632 20.5502571,9.00625806 20.5016326,8.98620458 C20.4519314,8.96736124 20.4065365,8.93952841 20.3677804,8.90426195 C20.2936772,8.82940713 20.2516914,8.73034989 20.250256,8.62679792 C20.2507943,8.57579985 20.2619188,8.52532041 20.2825528,8.47847133 C20.3012131,8.43006638 20.3302803,8.38615621 20.3677804,8.34950671 C20.5303408,8.20498343 20.7809997,8.20498343 20.9435601,8.34950671 C20.9810602,8.38615621 21.0101273,8.43006638 21.0287877,8.47847133 C21.0720295,8.57303385 21.0720295,8.68073486 21.0287877,8.77529733 C21.0081536,8.82266505 20.979266,8.8662295 20.9435601,8.90426195 C20.8658684,8.97548637 20.763057,9.01593904 20.6557599,9.01749491 Z" id="Shape"></path>
                    <path d="M20.6557599,10.580283 C20.5482834,10.5787272 20.4454721,10.5382745 20.3677804,10.4668772 L20.3191558,10.4082726 C20.3037251,10.3864904 20.2915241,10.3629794 20.2825528,10.3380855 C20.2708901,10.3157846 20.2626364,10.2921008 20.2583302,10.2677254 C20.2538445,10.2417942 20.2511531,10.2156901 20.250256,10.189586 C20.2507943,10.1384151 20.2619188,10.0881085 20.2825528,10.0410866 C20.3022897,9.99320028 20.3311774,9.94946292 20.3677804,9.91212197 C20.4648501,9.81997972 20.603188,9.7803914 20.7368607,9.80666837 C20.7621598,9.81099023 20.7867413,9.81876958 20.8097079,9.83017934 C20.8355453,9.83865019 20.8601267,9.85057854 20.8827345,9.86527289 C20.9039068,9.87979442 20.9243614,9.89535313 20.9435601,9.91212197 C21.0176632,9.98714965 21.059649,10.0862069 21.0610844,10.189586 C21.0601873,10.2156901 21.0574959,10.2417942 21.0530103,10.2677254 C21.048704,10.2921008 21.0404504,10.3157846 21.0287877,10.3380855 C21.0198164,10.3629794 21.0076153,10.3864904 20.9921847,10.4082726 L20.9435601,10.4668772 L20.8827345,10.5137262 C20.8601267,10.5285935 20.8355453,10.540349 20.8097079,10.5489927 C20.7867413,10.5602296 20.7621598,10.5681818 20.7368607,10.5723308 C20.7099468,10.5768256 20.6828533,10.5794187 20.6557599,10.580283 Z" id="Shape"></path>
                    <path d="M20.6557599,12.1428983 C20.490867,12.1437627 20.341943,12.0486815 20.2787848,11.9020837 C20.2156267,11.7554859 20.2507943,11.5865872 20.3677804,11.4749101 C20.465209,11.3832865 20.603188,11.3436981 20.7368607,11.3694565 C20.7621598,11.3736055 20.7867413,11.3815577 20.8097079,11.3927946 C20.8355453,11.4014383 20.8601267,11.4131938 20.8827345,11.428061 C20.9039068,11.4424096 20.9243614,11.4581413 20.9435601,11.4749101 C21.0605462,11.5865872 21.0957138,11.7554859 21.0325556,11.9020837 C20.9693975,12.0486815 20.8204735,12.1437627 20.6557599,12.1428983 Z" id="Shape"></path>
                    <path d="M20.6557599,13.7056864 C20.4644913,13.7037848 20.3012131,13.5724 20.2653278,13.3914001 C20.2294425,13.210573 20.330998,13.0304375 20.5079125,12.9607689 C20.6848271,12.8911004 20.8881173,12.9514337 20.993979,13.1047736 C21.0998406,13.2581136 21.0786683,13.4621058 20.9435601,13.5922806 C20.8658684,13.6636779 20.763057,13.7041306 20.6557599,13.7056864 Z" id="Shape"></path>
                    <path d="M3.6254922,5.89209157 C3.6254922,6.10783931 3.44409199,6.2827886 3.21998823,6.2827886 C2.99606394,6.2827886 2.81466377,6.10783931 2.81466377,5.89209157 C2.81466377,5.67634382 2.99606394,5.50139453 3.21998823,5.50139453 C3.44409199,5.50139453 3.6254922,5.67634382 3.6254922,5.89209157 Z" id="Shape"></path>
                    <path d="M14.5735599,0.422678857 C14.5735599,0.638426598 14.3919803,0.813375888 14.168056,0.813375888 C13.9441317,0.813375888 13.7625521,0.638426598 13.7625521,0.422678857 C13.7625521,0.206931116 13.9441317,0.0319818256 14.168056,0.0319818256 C14.3919803,0.0319818256 14.5735599,0.206931116 14.5735599,0.422678857 Z" id="Shape"></path>
                    <path d="M3.6254922,7.45487969 C3.6254922,7.67062743 3.44409199,7.84557672 3.21998823,7.84557672 C2.99606394,7.84557672 2.81466377,7.67062743 2.81466377,7.45487969 C2.81466377,7.23913195 2.99606394,7.06418266 3.21998823,7.06418266 C3.44409199,7.06418266 3.6254922,7.23913195 3.6254922,7.45487969 Z" id="Shape"></path>
                    <path d="M3.6254922,9.01749491 C3.6254922,9.23324265 3.44409199,9.40819198 3.21998823,9.40819198 C2.99606394,9.40819198 2.81466377,9.23324265 2.81466377,9.01749491 C2.81466377,8.80174717 2.99606394,8.62679792 3.21998823,8.62679792 C3.44409199,8.62679792 3.6254922,8.80174717 3.6254922,9.01749491 Z" id="Shape"></path>
                    <path d="M3.6254922,10.580283 C3.6254922,10.7960308 3.44409199,10.9709801 3.21998823,10.9709801 C2.99606394,10.9709801 2.81466377,10.7960308 2.81466377,10.580283 C2.81466377,10.3645353 2.99606394,10.189586 3.21998823,10.189586 C3.44409199,10.189586 3.6254922,10.3645353 3.6254922,10.580283 Z" id="Shape"></path>
                    <path d="M3.6254922,12.1428983 C3.6254922,12.358646 3.44409199,12.5335953 3.21998823,12.5335953 C2.99606394,12.5335953 2.81466377,12.358646 2.81466377,12.1428983 C2.81466377,11.9271506 2.99606394,11.7522013 3.21998823,11.7522013 C3.44409199,11.7522013 3.6254922,11.9271506 3.6254922,12.1428983 Z" id="Shape"></path>
                    <path d="M3.6254922,13.7056864 C3.6254922,13.9214342 3.44409199,14.0962106 3.21998823,14.0962106 C2.99606394,14.0962106 2.81466377,13.9214342 2.81466377,13.7056864 C2.81466377,13.4897658 2.99606394,13.3149894 3.21998823,13.3149894 C3.44409199,13.3149894 3.6254922,13.4897658 3.6254922,13.7056864 Z" id="Shape"></path>
                </g>
                <path d="M24,14 L18,14 L18.2121996,13.75 L19.4631356,12.285177 C19.6208047,12.105531 19.838927,12.0026549 20.0676696,12 L21.9276329,12 C22.1598475,12.0017699 22.3808292,12.1088496 22.5368643,12.2951328 L23.7875962,13.75 L24,14 Z" id="Shape" fill="#285680"></path>
            </g>
        </g>
    </g>
</svg>