<svg width="24" height="24" fill="none" xmlns="http://www.w3.org/2000/svg"><path fill="none" d="M0 0h24v24H0z"/><mask id="a" fill="#fff"><path d="M23.418.582c2.212 2.212-2.071 10.17-9.692 18.206-2.751 2.75-6.57 3.393-8.53 1.434l-1.418-1.419c-1.96-1.959-1.317-5.778 1.435-8.529C13.248 2.654 21.206-1.63 23.417.582z"/></mask><path d="M13.726 18.788l1.414 1.414.019-.019.018-.02-1.451-1.375zm-8.53 1.434l1.415-1.414-1.414 1.414zm-1.418-1.419l-1.414 1.414 1.414-1.414zm1.435-8.529L3.836 8.823l-.019.018-.019.019 1.415 1.414zm9.964 9.89c3.893-4.104 6.991-8.247 8.847-11.72.92-1.726 1.593-3.39 1.854-4.866.249-1.402.207-3.158-1.045-4.41l-2.829 2.828c-.146-.147.106-.079-.065.884-.157.89-.618 2.133-1.444 3.679-1.638 3.067-4.492 6.921-8.22 10.852l2.902 2.753zm-2.865-2.79c-1.116 1.115-2.391 1.742-3.48 1.925-1.093.184-1.819-.089-2.221-.491l-2.828 2.828c1.556 1.557 3.72 1.943 5.713 1.608 1.999-.337 4.009-1.407 5.644-3.042l-2.828-2.829zM6.61 18.807l-1.419-1.419-2.828 2.828 1.419 1.42 2.828-2.83zm-1.419-1.419c-.402-.402-.675-1.128-.49-2.221.182-1.089.809-2.364 1.925-3.48L3.798 8.86c-1.635 1.635-2.705 3.645-3.042 5.644-.335 1.994.05 4.157 1.608 5.713l2.828-2.828zM24.832-.833c-1.252-1.252-3.008-1.294-4.41-1.045-1.476.261-3.14.933-4.865 1.854C12.083 1.832 7.94 4.93 3.837 8.823l2.752 2.902c3.93-3.728 7.785-6.582 10.853-8.22 1.545-.826 2.788-1.287 3.677-1.445.964-.17 1.032.082.885-.064l2.829-2.829z" fill="#263745" mask="url(#a)"/><ellipse cx="16.791" cy="7.209" rx="2.007" ry="2.007" transform="rotate(45 16.79 7.21)" fill="#263745"/><path fill-rule="evenodd" clip-rule="evenodd" d="M7.686 7.564l.118.119L9.223 9.1l1.419-1.418-1.537-1.538a5.853 5.853 0 0 0-8.277 0 1.17 1.17 0 0 0 0 1.656l4.848 4.848 1.418-1.42-1.418-1.418-2.774-2.773a3.848 3.848 0 0 1 4.784.526zM16.317 16.196l.119.118a3.848 3.848 0 0 1 .527 4.784l-2.774-2.774-1.419-1.419-1.419 1.42 4.848 4.847a1.17 1.17 0 0 0 1.656 0 5.852 5.852 0 0 0 0-8.277l-1.538-1.537-1.418 1.42 1.418 1.418z" fill="#263745"/><path d="M1 20.352l1.303 1.303 1.303 1.303H1v-2.605z" fill="#263745" stroke="#263745" stroke-width="2"/></svg>